<?xml version="1.0" standalone="no"?>
<!DOCTYPE svg PUBLIC "-//W3C//DTD SVG 20010904//EN"
 "http://www.w3.org/TR/2001/REC-SVG-20010904/DTD/svg10.dtd">
<svg version="1.0" xmlns="http://www.w3.org/2000/svg"
 width="800.000000pt" height="800.000000pt" viewBox="0 0 800.000000 800.000000"
 preserveAspectRatio="xMidYMid meet">
<metadata>
Created by potrace 1.11, written by Peter Selinger 2001-2013
</metadata>
<g transform="translate(0.000000,800.000000) scale(0.100000,-0.100000)"
fill="#000000" stroke="none">
<path d="M3296 5711 c-1 -3 -2 -535 -1 -1181 1 -701 -3 -1190 -8 -1213 -13
-51 -71 -108 -149 -146 -63 -30 -222 -75 -308 -85 -178 -22 -239 -26 -410 -26
-394 1 -641 64 -700 179 -17 34 -18 74 -19 561 0 289 -1 531 -1 538 0 9 -93
12 -429 12 l-429 0 1 -627 c0 -697 1 -707 64 -832 42 -84 162 -214 253 -274
89 -59 222 -123 340 -165 132 -48 340 -100 460 -117 25 -3 58 -8 75 -11 16 -3
50 -7 75 -9 25 -3 74 -8 110 -12 103 -12 455 -8 570 6 58 7 121 15 140 17 68
8 206 35 305 60 436 110 732 302 846 550 59 129 58 107 59 1093 0 521 4 907 9
910 13 9 1999 6 2042 -3 109 -20 170 -195 134 -381 -19 -97 -46 -146 -100
-181 -28 -18 -61 -19 -864 -24 l-834 -5 202 -255 c112 -140 211 -264 221 -276
9 -11 41 -52 70 -90 30 -38 76 -96 103 -129 27 -33 60 -73 73 -90 13 -16 124
-156 246 -310 123 -154 317 -398 432 -543 l208 -262 534 0 c294 0 534 2 534 5
0 4 -30 43 -66 88 -81 102 -67 84 -204 257 -63 80 -120 152 -127 160 -7 8 -51
65 -99 125 -140 178 -426 539 -441 556 -12 14 4 16 169 16 101 0 200 3 220 7
194 32 357 212 453 500 29 87 63 228 71 291 3 22 7 46 10 53 8 25 18 166 18
252 0 107 -10 190 -35 305 -85 388 -254 624 -499 696 -36 11 -360 14 -1683 15
-901 0 -1639 -2 -1641 -5z"/>
</g>
</svg>
